<svg width="94" height="84" viewBox="0 0 94 84" fill="none" xmlns="http://www.w3.org/2000/svg">
<path fill-rule="evenodd" clip-rule="evenodd" d="M2.7626 84L1.32238 78.1643C0.747147 73.448 0.809392 69.7664 1.0734 66.7362C1.26872 64.4893 2.02854 61.5684 3.03734 59.3174C8.50847 47.1349 21.7667 49.1756 32.6403 57.2375C39.4228 62.2652 42.6295 63.3783 48.4226 59.6596C65.2932 48.8314 55.437 33.7011 45.5465 39.5862C42.9729 41.1178 40.8545 43.981 42.1616 46.6752C43.7671 49.9857 48.678 49.9733 48.6394 53.9662C47.0511 57.691 37.534 45.4425 26.2054 43.8924C24.8231 43.7027 24.0697 43.9418 22.4106 43.5069C22.2303 34.9131 32.2067 25.4268 45.012 30.4483C51.0906 32.8332 55.9886 38.0031 60.7364 39.6089C67.2078 41.798 74.3595 34.7379 79 30.1844C74.4282 30.2463 72.5887 35.9789 59.9659 27.5933C53.78 23.483 49.5259 22.4152 44.6106 22.0442C34.2887 21.265 24.2844 30.9347 22.3376 40.2026C21.3267 45.0117 22.3569 43.1317 17.5898 44.2902C15.2932 44.8488 12.666 46.3103 10.6119 47.6997C3.14251 52.7582 -0.195115 61.7024 0.00879102 70.9269C0.24704 75.5897 0.438068 78.7497 2.75831 83.9979L2.7626 84Z" fill="#FF9F43"/>
<path fill-rule="evenodd" clip-rule="evenodd" d="M94 23.1538C90.9308 23.4149 89.423 24.695 85.4384 24.6186C79.1696 24.4976 72.3491 22.0966 66.9957 16.2671C64.4954 13.5455 62.0722 9.57145 62.7138 6.39346C65.4322 5.66743 69.4189 6.28731 72.6656 9.12139C75.0054 11.1636 76.6523 14.0295 76.417 16.6025L75.9679 19.6616C79.3279 16.8891 83.3895 13.5583 83.1243 9.40586C82.7286 3.21972 73.8633 -3.74978 63.4624 2.36419C60.2029 4.27905 56.1606 7.15134 56.0087 11.2613C55.7029 19.4323 63.4859 27.8114 72.841 30.1424C76.7229 31.1104 79.7621 31.327 83.8878 30.4396C87.5302 29.6584 92.674 26.663 93.9979 23.1517L94 23.1538Z" fill="#FF9F43"/>
<path fill-rule="evenodd" clip-rule="evenodd" d="M10.7856 77.7025L9 66.7674L18.2648 67.0116L16.9592 59L28.2166 59.2975L30 70.2348L20.7352 69.9907L22.0431 78L10.7856 77.7025Z" fill="#F4F4F4"/>
</svg>
