<svg width="57" height="54" viewBox="0 0 57 54" fill="none" xmlns="http://www.w3.org/2000/svg">
<path d="M28.4482 0.5C43.9086 0.5 56.3965 12.3888 56.3965 27C56.3965 41.6113 43.9086 53.5 28.4482 53.5C12.9879 53.5 0.5 41.6112 0.5 27C0.5 12.3888 12.9879 0.500018 28.4482 0.5Z" fill="#092C1C" stroke="#D9D9D9"/>
<path fill-rule="evenodd" clip-rule="evenodd" d="M14.1712 40.5L13.7045 38.6363C13.518 37.1302 13.5382 35.9544 13.6238 34.9867C13.6871 34.2692 13.9333 33.3364 14.2603 32.6175C16.0334 28.7269 20.3303 29.3787 23.8544 31.9533C26.0526 33.5589 27.0919 33.9144 28.9694 32.7268C34.437 29.2687 31.2427 24.4368 28.0372 26.3162C27.2032 26.8054 26.5166 27.7197 26.9402 28.5801C27.4605 29.6374 29.0522 29.6334 29.0396 30.9086C28.5249 32.0981 25.4404 28.1865 21.7689 27.6914C21.3209 27.6309 21.0767 27.7072 20.539 27.5683C20.4806 24.8239 23.7139 21.7944 27.864 23.398C29.834 24.1596 31.4215 25.8107 32.9602 26.3235C35.0575 27.0226 37.3754 24.7679 38.8793 23.3137C37.3976 23.3335 36.8015 25.1642 32.7105 22.4862C30.7057 21.1736 29.3269 20.8326 27.7339 20.7141C24.3886 20.4653 21.1463 23.5534 20.5154 26.5131C20.1877 28.0489 20.5216 27.4485 18.9766 27.8185C18.2323 27.9969 17.3809 28.4636 16.7151 28.9073C14.2943 30.5228 13.2126 33.3792 13.2787 36.3251C13.3559 37.8141 13.4179 38.8233 14.1698 40.4993L14.1712 40.5Z" fill="#FF9F43"/>
<path fill-rule="evenodd" clip-rule="evenodd" d="M43.6206 20.8943C42.6249 20.9777 42.1357 21.3865 40.8431 21.3621C38.8094 21.3234 36.5968 20.5567 34.8601 18.695C34.049 17.8258 33.2628 16.5567 33.471 15.5418C34.3529 15.3099 35.6462 15.5079 36.6995 16.413C37.4585 17.0652 37.9928 17.9804 37.9165 18.8021L37.7708 19.779C38.8608 18.8936 40.1784 17.8299 40.0924 16.5038C39.964 14.5282 37.088 12.3025 33.7138 14.255C32.6564 14.8665 31.3451 15.7838 31.2958 17.0963C31.1966 19.7058 33.7215 22.3817 36.7564 23.1261C38.0157 23.4353 39.0016 23.5044 40.3401 23.221C41.5217 22.9715 43.1904 22.0149 43.6199 20.8936L43.6206 20.8943Z" fill="#FF9F43"/>
<path fill-rule="evenodd" clip-rule="evenodd" d="M16.685 38.6014L16.1206 34.9755L19.0491 35.0565L18.6364 32.4L22.1948 32.4986L22.7585 36.1252L19.83 36.0443L20.2434 38.7L16.685 38.6014Z" fill="#F4F4F4"/>
</svg>
