<svg width="1088" height="779" viewBox="0 0 1088 779" fill="none" xmlns="http://www.w3.org/2000/svg">
<path fill-rule="evenodd" clip-rule="evenodd" d="M33.171 992L16.3728 922.378C9.66361 866.109 10.3896 822.187 13.4689 786.035C15.747 759.229 24.6092 724.381 36.3754 697.526C100.188 552.182 254.826 576.529 381.651 672.712C460.76 732.693 498.161 745.974 565.729 701.608C762.5 572.422 647.542 391.911 532.183 462.123C502.167 480.396 477.458 514.555 492.704 546.698C511.43 586.194 568.708 586.047 568.258 633.683C549.732 678.122 438.729 531.992 306.597 513.498C290.475 511.235 281.688 514.088 262.337 508.899C260.234 406.371 376.594 293.195 525.949 353.103C596.847 381.557 653.976 443.236 709.352 462.394C784.831 488.511 868.246 404.281 922.37 349.956C869.047 350.693 847.592 419.086 700.365 319.042C628.215 270.004 578.597 257.265 521.268 252.839C400.877 243.543 284.192 358.907 261.485 469.477C249.694 526.852 261.711 504.423 206.109 518.244C179.322 524.909 148.68 542.345 124.722 558.921C37.6021 619.271 -1.32652 725.98 1.05175 836.032C3.83058 891.661 6.05865 929.362 33.1209 991.975L33.171 992Z" fill="white"/>
<path fill-rule="evenodd" clip-rule="evenodd" d="M1088 268.234C1052.07 271.259 1034.42 286.088 987.785 285.203C914.409 283.801 834.574 255.986 771.913 188.455C742.648 156.927 714.284 110.889 721.794 74.0734C753.613 65.6627 800.277 72.8438 838.28 105.675C865.667 129.333 884.944 162.534 882.19 192.34L876.933 227.778C916.262 195.66 963.802 157.074 960.698 108.971C956.067 37.3072 852.299 -43.431 730.556 27.3962C692.404 49.579 645.088 82.853 643.311 130.465C639.731 225.122 730.832 322.19 840.332 349.193C885.77 360.408 921.344 362.916 969.635 352.636C1012.27 343.586 1072.48 308.886 1087.97 268.209L1088 268.234Z" fill="white"/>
<path fill-rule="evenodd" clip-rule="evenodd" d="M125.723 913.992L106.071 792.847L208.037 795.553L193.667 706.797L317.562 710.093L337.189 831.261L235.224 828.556L249.619 917.287L125.723 913.992Z" fill="#F4F4F4"/>
</svg>
